<?xml version="1.0" encoding="UTF-8"?>
<svg xmlns="http://www.w3.org/2000/svg" xmlns:xlink="http://www.w3.org/1999/xlink" width="41pt" height="41pt" viewBox="0 0 41 41" version="1.1">
<g id="surface1">
<path style=" stroke:none;fill-rule:evenodd;fill:rgb(20%,18.823529%,20%);fill-opacity:1;" d="M 16.566406 20.632812 L 16.566406 35.3125 C 16.566406 35.511719 16.730469 35.710938 16.960938 35.710938 L 22.417969 35.710938 C 22.617188 35.710938 22.816406 35.542969 22.816406 35.3125 L 22.816406 20.367188 L 26.75 20.367188 C 26.949219 20.367188 27.113281 20.203125 27.144531 20.003906 L 27.476562 15.539062 C 27.507812 15.308594 27.3125 15.109375 27.078125 15.109375 L 22.78125 15.109375 L 22.78125 11.9375 C 22.78125 11.175781 23.375 10.582031 24.136719 10.582031 L 27.179688 10.582031 C 27.378906 10.582031 27.574219 10.414062 27.574219 10.183594 L 27.574219 5.71875 C 27.574219 5.523438 27.410156 5.324219 27.179688 5.324219 L 22.019531 5.324219 C 19.011719 5.324219 16.566406 7.769531 16.566406 10.777344 L 16.566406 15.109375 L 13.855469 15.109375 C 13.65625 15.109375 13.457031 15.277344 13.457031 15.507812 L 13.457031 20.003906 C 13.457031 20.203125 13.621094 20.402344 13.855469 20.402344 L 16.566406 20.402344 Z M 16.566406 20.632812 "/>
</g>
</svg>
