<?xml version="1.0" encoding="UTF-8"?>
<svg xmlns="http://www.w3.org/2000/svg" xmlns:xlink="http://www.w3.org/1999/xlink" width="41pt" height="41pt" viewBox="0 0 41 41" version="1.1">
<g id="surface1">
<path style=" stroke:none;fill-rule:nonzero;fill:rgb(20%,18.823529%,20%);fill-opacity:1;" d="M 28.832031 11.109375 C 27.808594 11.109375 26.980469 11.9375 26.980469 12.960938 C 26.980469 13.984375 27.808594 14.8125 28.832031 14.8125 C 29.855469 14.8125 30.683594 13.984375 30.683594 12.960938 C 30.683594 11.9375 29.855469 11.109375 28.832031 11.109375 Z M 20.566406 13.492188 C 16.269531 13.492188 12.761719 16.996094 12.761719 21.292969 C 12.761719 25.59375 16.269531 29.097656 20.566406 29.097656 C 24.863281 29.097656 28.371094 25.59375 28.371094 21.292969 C 28.371094 16.996094 24.863281 13.492188 20.566406 13.492188 Z M 20.566406 26.320312 C 17.789062 26.320312 15.574219 24.070312 15.574219 21.328125 C 15.574219 18.550781 17.820312 16.332031 20.566406 16.332031 C 23.34375 16.332031 25.558594 18.582031 25.558594 21.328125 C 25.558594 24.070312 23.308594 26.320312 20.566406 26.320312 Z M 36.339844 14.8125 C 36.339844 9.554688 32.074219 5.289062 26.816406 5.289062 L 14.21875 5.289062 C 8.960938 5.289062 4.695312 9.554688 4.695312 14.8125 L 4.695312 27.410156 C 4.695312 32.667969 8.960938 36.933594 14.21875 36.933594 L 26.78125 36.933594 C 32.039062 36.933594 36.304688 32.667969 36.304688 27.410156 L 36.304688 14.8125 Z M 33.328125 27.378906 C 33.328125 30.980469 30.386719 33.925781 26.78125 33.925781 L 14.21875 33.925781 C 10.613281 33.925781 7.671875 30.980469 7.671875 27.378906 L 7.671875 14.8125 C 7.671875 11.175781 10.582031 8.265625 14.21875 8.265625 L 26.78125 8.265625 C 30.386719 8.265625 33.328125 11.207031 33.328125 14.8125 Z M 33.328125 27.378906 "/>
</g>
</svg>
