<?xml version="1.0" encoding="UTF-8"?>
<svg xmlns="http://www.w3.org/2000/svg" xmlns:xlink="http://www.w3.org/1999/xlink" width="41pt" height="41pt" viewBox="0 0 41 41" version="1.1">
<g id="surface1">
<path style=" stroke:none;fill-rule:nonzero;fill:rgb(20%,18.823529%,20%);fill-opacity:1;" d="M 3.800781 29.230469 C 3.800781 29.0625 3.800781 28.898438 3.800781 28.699219 C 4 28.46875 4.230469 28.238281 4.597656 28.171875 C 7.308594 27.640625 9.160156 25.890625 10.515625 23.609375 C 11.671875 21.691406 11.472656 21.261719 9.355469 20.5 C 9.226562 20.46875 9.125 20.433594 8.992188 20.367188 C 8.53125 20.167969 8.066406 19.972656 7.703125 19.640625 C 6.746094 18.8125 7.308594 17.625 8.429688 17.359375 C 9.257812 17.160156 9.984375 17.691406 10.777344 17.789062 C 11.308594 17.855469 11.539062 17.691406 11.472656 17.09375 C 11.308594 15.640625 11.308594 14.152344 11.375 12.695312 C 11.507812 9.886719 12.894531 7.769531 15.210938 6.382812 C 18.617188 4.363281 22.1875 4.332031 25.625 6.347656 C 27.742188 7.605469 29.128906 9.523438 29.425781 12.070312 C 29.625 13.722656 29.558594 15.40625 29.425781 17.0625 C 29.359375 17.789062 29.527344 17.921875 30.222656 17.753906 C 31.113281 17.558594 31.839844 17.09375 32.765625 17.492188 C 33.261719 17.722656 33.691406 18.183594 33.660156 18.714844 C 33.660156 19.078125 33.429688 19.410156 33.164062 19.671875 C 32.734375 20.035156 32.171875 20.234375 31.675781 20.46875 C 31.277344 20.632812 30.847656 20.765625 30.484375 20.929688 C 29.691406 21.292969 29.460938 21.789062 29.824219 22.617188 C 31.113281 25.359375 33.03125 27.476562 36.140625 28.203125 C 36.503906 28.304688 36.832031 28.433594 37.066406 28.765625 C 37.066406 28.929688 37.066406 29.097656 37.066406 29.296875 C 36.769531 29.890625 36.238281 30.222656 35.644531 30.453125 C 35.046875 30.683594 34.421875 30.949219 33.792969 30.980469 C 32.898438 31.046875 32.4375 31.445312 32.269531 32.371094 C 32.140625 33.261719 31.875 33.394531 30.980469 33.328125 C 30.78125 33.296875 30.550781 33.261719 30.351562 33.230469 C 28.566406 32.898438 26.914062 33.097656 25.460938 34.289062 C 25.160156 34.519531 24.863281 34.71875 24.535156 34.917969 C 22.054688 36.535156 19.507812 36.703125 16.894531 35.214844 C 16.203125 34.785156 15.507812 34.320312 14.8125 33.859375 C 14.25 33.496094 13.621094 33.261719 12.960938 33.164062 C 11.871094 33 10.84375 33.230469 9.785156 33.363281 C 9.257812 33.429688 8.730469 33.261719 8.695312 32.699219 C 8.628906 31.34375 7.804688 31.015625 6.679688 30.914062 C 6.148438 30.847656 5.621094 30.652344 5.125 30.453125 C 4.5625 30.121094 4.066406 29.792969 3.800781 29.230469 Z M 3.800781 29.230469 "/>
</g>
</svg>
