<?xml version="1.0" encoding="UTF-8"?>
<svg xmlns="http://www.w3.org/2000/svg" xmlns:xlink="http://www.w3.org/1999/xlink" width="41pt" height="41pt" viewBox="0 0 41 41" version="1.1">
<g id="surface1">
<path style=" stroke:none;fill-rule:nonzero;fill:rgb(20%,18.823529%,20%);fill-opacity:1;" d="M 35.148438 12.101562 C 34.222656 12.53125 33.164062 12.796875 32.171875 12.960938 C 32.667969 12.894531 33.363281 12.003906 33.660156 11.671875 C 34.089844 11.144531 34.453125 10.515625 34.652344 9.851562 C 34.683594 9.785156 34.683594 9.722656 34.652344 9.6875 C 34.585938 9.65625 34.550781 9.6875 34.484375 9.6875 C 33.363281 10.28125 32.203125 10.746094 30.949219 11.042969 C 30.847656 11.078125 30.78125 11.042969 30.71875 10.976562 C 30.617188 10.84375 30.519531 10.746094 30.417969 10.648438 C 29.890625 10.21875 29.328125 9.851562 28.699219 9.589844 C 27.875 9.257812 26.949219 9.09375 26.054688 9.160156 C 25.195312 9.226562 24.335938 9.457031 23.574219 9.851562 C 22.816406 10.25 22.121094 10.8125 21.558594 11.507812 C 20.996094 12.199219 20.566406 13.027344 20.367188 13.921875 C 20.167969 14.78125 20.167969 15.605469 20.300781 16.464844 C 20.335938 16.597656 20.300781 16.632812 20.167969 16.597656 C 15.277344 15.902344 11.242188 14.183594 7.96875 10.449219 C 7.835938 10.28125 7.738281 10.28125 7.636719 10.449219 C 6.214844 12.597656 6.910156 16.035156 8.695312 17.753906 C 8.925781 17.988281 9.191406 18.21875 9.457031 18.417969 C 9.355469 18.449219 8.167969 18.316406 7.109375 17.753906 C 6.976562 17.65625 6.910156 17.722656 6.878906 17.886719 C 6.878906 18.121094 6.878906 18.316406 6.910156 18.582031 C 7.175781 20.765625 8.695312 22.78125 10.746094 23.542969 C 10.976562 23.640625 11.273438 23.742188 11.539062 23.773438 C 11.078125 23.871094 10.582031 23.9375 9.226562 23.839844 C 9.058594 23.804688 8.992188 23.90625 9.058594 24.039062 C 10.050781 26.816406 12.234375 27.640625 13.886719 28.105469 C 14.117188 28.136719 14.316406 28.136719 14.546875 28.203125 C 14.546875 28.238281 14.515625 28.238281 14.515625 28.238281 C 13.984375 29.0625 12.101562 29.691406 11.207031 29.988281 C 9.621094 30.550781 7.871094 30.78125 6.183594 30.617188 C 5.917969 30.585938 5.851562 30.585938 5.785156 30.617188 C 5.71875 30.652344 5.785156 30.71875 5.851562 30.78125 C 6.183594 31.015625 6.546875 31.214844 6.910156 31.410156 C 7.96875 31.972656 9.09375 32.4375 10.25 32.765625 C 16.269531 34.421875 23.078125 33.195312 27.609375 28.699219 C 31.148438 25.195312 32.402344 20.335938 32.402344 15.441406 C 32.402344 15.242188 32.632812 15.144531 32.765625 15.042969 C 33.691406 14.351562 34.421875 13.523438 35.113281 12.597656 C 35.28125 12.398438 35.246094 12.199219 35.246094 12.132812 C 35.246094 12.132812 35.246094 12.101562 35.246094 12.101562 C 35.246094 12.035156 35.28125 12.035156 35.148438 12.101562 Z M 35.148438 12.101562 "/>
<path style=" stroke:none;fill-rule:evenodd;fill:rgb(20%,18.823529%,20%);fill-opacity:1;" d="M 15.507812 33.429688 C 15.507812 33.363281 16.035156 33.429688 15.507812 33.429688 C 15.507812 33.394531 15.574219 33.429688 15.507812 33.429688 Z M 15.507812 33.429688 "/>
<path style=" stroke:none;fill-rule:evenodd;fill:rgb(20%,18.823529%,20%);fill-opacity:1;" d="M 25.957031 9.226562 C 25.921875 9.257812 25.890625 9.257812 25.824219 9.226562 C 25.855469 9.226562 25.921875 9.226562 25.957031 9.226562 Z M 25.957031 9.226562 "/>
</g>
</svg>
