<?xml version="1.0" encoding="UTF-8"?>
<svg xmlns="http://www.w3.org/2000/svg" xmlns:xlink="http://www.w3.org/1999/xlink" width="41pt" height="41pt" viewBox="0 0 41 41" version="1.1">
<g id="surface1">
<path fill="#BBBBCC" d="M 21.160156 5.222656 C 12.730469 5.222656 5.886719 12.070312 5.886719 20.5 C 5.886719 23.476562 6.710938 26.320312 8.332031 28.800781 L 6.019531 33.925781 C 5.820312 34.386719 5.886719 34.949219 6.214844 35.347656 C 6.480469 35.644531 6.84375 35.808594 7.242188 35.808594 C 7.375 35.808594 7.472656 35.808594 7.605469 35.777344 L 14.019531 34.023438 C 16.234375 35.214844 18.714844 35.84375 21.226562 35.84375 C 29.660156 35.84375 36.503906 28.996094 36.503906 20.566406 C 36.4375 12.070312 29.59375 5.222656 21.160156 5.222656 Z M 21.160156 33.128906 C 18.914062 33.128906 16.730469 32.535156 14.8125 31.410156 C 14.613281 31.277344 14.382812 31.214844 14.152344 31.214844 C 14.019531 31.214844 13.921875 31.214844 13.789062 31.246094 L 9.589844 32.402344 L 11.042969 29.195312 C 11.242188 28.765625 11.175781 28.238281 10.910156 27.875 C 9.355469 25.722656 8.53125 23.179688 8.53125 20.5 C 8.53125 13.554688 14.21875 7.871094 21.160156 7.871094 C 28.105469 7.871094 33.792969 13.523438 33.792969 20.5 C 33.792969 27.445312 28.136719 33.128906 21.160156 33.128906 Z M 21.160156 33.128906 "/>
<path fill="#BBBBCC" d="M 27.046875 22.78125 C 26.417969 22.382812 25.558594 21.953125 24.832031 22.285156 C 24.269531 22.515625 23.871094 23.441406 23.507812 23.90625 C 23.308594 24.136719 23.078125 24.171875 22.78125 24.070312 C 20.597656 23.210938 18.945312 21.757812 17.753906 19.773438 C 17.558594 19.476562 17.589844 19.210938 17.820312 18.914062 C 18.183594 18.484375 18.648438 17.988281 18.746094 17.425781 C 18.847656 16.863281 18.582031 16.167969 18.351562 15.671875 C 18.054688 15.011719 17.722656 14.085938 17.0625 13.722656 C 16.464844 13.390625 15.671875 13.554688 15.144531 14.019531 C 14.21875 14.78125 13.753906 15.96875 13.789062 17.128906 C 13.789062 17.457031 13.820312 17.789062 13.921875 18.121094 C 14.117188 18.878906 14.449219 19.605469 14.878906 20.300781 C 15.175781 20.832031 15.507812 21.328125 15.871094 21.789062 C 17.027344 23.375 18.484375 24.730469 20.136719 25.757812 C 20.964844 26.253906 21.890625 26.714844 22.816406 27.015625 C 23.871094 27.34375 24.796875 27.707031 25.921875 27.507812 C 27.113281 27.277344 28.269531 26.550781 28.734375 25.425781 C 28.867188 25.097656 28.929688 24.699219 28.867188 24.367188 C 28.632812 23.574219 27.640625 23.144531 27.046875 22.78125 Z M 27.046875 22.78125 "/>
</g>
</svg>
