<?xml version="1.0" encoding="UTF-8"?>
<svg xmlns="http://www.w3.org/2000/svg" xmlns:xlink="http://www.w3.org/1999/xlink" width="41pt" height="41pt" viewBox="0 0 41 41" version="1.1">
<g id="surface1">
<path style=" stroke:none;fill-rule:nonzero;fill:rgb(20%,18.823529%,20%);fill-opacity:1;" d="M 35.445312 16.53125 C 35.445312 12.929688 32.535156 10.019531 28.929688 10.019531 L 12.070312 10.019531 C 8.464844 10.019531 5.554688 12.929688 5.554688 16.53125 L 5.554688 24.46875 C 5.554688 28.070312 8.464844 30.980469 12.070312 30.980469 L 28.929688 30.980469 C 32.535156 30.980469 35.445312 28.070312 35.445312 24.46875 Z M 24.796875 20.898438 L 18.085938 24.601562 C 17.789062 24.765625 17.523438 24.535156 17.523438 24.203125 L 17.523438 16.632812 C 17.523438 16.300781 17.789062 16.070312 18.085938 16.234375 L 24.863281 20.101562 C 25.160156 20.300781 25.097656 20.730469 24.796875 20.898438 Z M 24.796875 20.898438 "/>
</g>
</svg>
